<?xml version="1.0" encoding="UTF-8" standalone="no"?>
<!-- Created with Inkscape (http://www.inkscape.org/) -->

<svg
   xmlns:dc="http://purl.org/dc/elements/1.1/"
   xmlns:cc="http://creativecommons.org/ns#"
   xmlns:rdf="http://www.w3.org/1999/02/22-rdf-syntax-ns#"
   xmlns:svg="http://www.w3.org/2000/svg"
   xmlns="http://www.w3.org/2000/svg"
   xmlns:sodipodi="http://sodipodi.sourceforge.net/DTD/sodipodi-0.dtd"
   xmlns:inkscape="http://www.inkscape.org/namespaces/inkscape"
   width="100mm"
   height="100mm"
   viewBox="0 0 100 100"
   version="1.1"
   id="svg872"
   inkscape:version="0.92.4 5da689c313, 2019-01-14"
   sodipodi:docname="bgu.svg">
  <defs
     id="defs866" />
  <sodipodi:namedview
     id="base"
     pagecolor="#ffffff"
     bordercolor="#666666"
     borderopacity="1.0"
     inkscape:pageopacity="0.0"
     inkscape:pageshadow="2"
     inkscape:zoom="0.35"
     inkscape:cx="-530.34201"
     inkscape:cy="622.30073"
     inkscape:document-units="mm"
     inkscape:current-layer="layer1"
     showgrid="false"
     inkscape:window-width="1920"
     inkscape:window-height="1016"
     inkscape:window-x="0"
     inkscape:window-y="27"
     inkscape:window-maximized="1" />
  <metadata
     id="metadata869">
    <rdf:RDF>
      <cc:Work
         rdf:about="">
        <dc:format>image/svg+xml</dc:format>
        <dc:type
           rdf:resource="http://purl.org/dc/dcmitype/StillImage" />
        <dc:title></dc:title>
      </cc:Work>
    </rdf:RDF>
  </metadata>
  <g
     inkscape:label="Layer 1"
     inkscape:groupmode="layer"
     id="layer1"
     transform="translate(0,-197)">
    <path
       style="fill:#f7931d;fill-opacity:1;stroke-width:0.4291105"
       d="M 42.67383,294.38681 C 26.055183,291.35247 12.241042,279.33589 6.7016923,263.09555 0.96078554,246.26429 6.4028172,226.14758 19.900888,214.30418 c 18.730422,-16.43435 46.529377,-15.56262 63.743274,1.99885 8.839585,9.01805 13.457923,20.13939 13.457923,32.40776 0,25.75371 -21.019176,46.55893 -46.773045,46.29693 -2.478113,-0.0253 -5.922956,-0.30462 -7.65521,-0.62091 z m -0.04604,-17.24745 c 0.01249,-3.48116 0.270033,-7.83893 0.572281,-9.68393 l 0.549541,-3.35456 -2.034305,-1.03085 c -1.118869,-0.56698 -3.321285,-2.00498 -4.894259,-3.19555 -2.16298,-1.63716 -2.800144,-1.95406 -2.614524,-1.30031 0.134985,0.47541 0.336934,1.20232 0.448773,1.61533 0.111841,0.41302 0.388347,2.40126 0.614461,4.41828 0.768863,6.8586 -0.732659,13.28877 -3.965325,16.98127 l -1.645632,1.87971 h 6.473126 6.473126 z m 13.547514,5.6698 c -2.525803,-6.58215 -2.155104,-14.84976 0.91927,-20.50225 0.645157,-1.18615 3.438719,-4.5599 6.207921,-7.49719 5.509764,-5.8442 7.099551,-8.43778 7.48978,-12.21882 0.475328,-4.60542 -1.633609,-11.01138 -5.499009,-16.70344 -3.461483,-5.09725 -11.609352,-12.71393 -16.971216,-15.86478 l -1.211336,-0.71184 v 3.51008 c 0,3.07991 -0.167881,3.85109 -1.369872,6.29269 -0.753431,1.53042 -3.209643,5.35354 -5.458253,8.49579 -7.188295,10.0451 -8.837957,13.40405 -8.830217,17.97963 0.0091,5.41361 3.443353,9.73092 11.652062,14.6484 l 1.572156,0.94182 1.126868,-2.46141 c 0.619778,-1.35377 1.598974,-3.08037 2.175986,-3.83687 l 1.049114,-1.37547 -2.287476,-1.29097 c -3.999942,-2.25742 -6.705906,-6.09542 -6.705906,-9.51129 0,-2.09799 0.940554,-4.60071 4.515418,-12.01509 3.645324,-7.56052 4.920227,-11.25312 4.920227,-14.2508 0,-0.89446 0.15221,-1.62628 0.338243,-1.62628 1.021777,0 6.961184,8.47933 9.46807,13.51697 2.44996,4.92328 3.210762,7.88617 2.973666,11.58075 -0.271673,4.23317 -1.510172,6.30426 -7.329446,12.25681 -5.238758,5.35873 -6.637993,7.53105 -8.002362,12.42367 -1.080694,3.8754 -1.818794,11.99561 -1.452797,15.98297 l 0.265873,2.89651 h 5.348172 c 4.634981,0 5.314417,-0.0879 5.095064,-0.65959 z m 13.277627,-1.07642 c -4.539921,-4.18476 -5.177124,-10.15397 -1.795176,-16.81691 l 1.46708,-2.89039 -2.826875,-1.50107 -2.826875,-1.50107 -1.804842,1.88363 c -4.791269,5.00044 -5.598225,15.5606 -1.650282,21.59632 0.598992,0.91577 0.906767,0.9655 5.975926,0.9655 h 5.3444 z"
       id="path1432"
       inkscape:connector-curvature="0" />
    <path
       style="fill:#000000;stroke-width:0.26458332"
       d=""
       id="path1430"
       inkscape:connector-curvature="0" />
    <path
       style="fill:#000000;stroke-width:0.26458332"
       d=""
       id="path1428"
       inkscape:connector-curvature="0" />
  </g>
</svg>
