<?xml version="1.0" encoding="UTF-8" standalone="no"?>
<!-- Created with Inkscape (http://www.inkscape.org/) -->

<svg
   xmlns:dc="http://purl.org/dc/elements/1.1/"
   xmlns:cc="http://creativecommons.org/ns#"
   xmlns:rdf="http://www.w3.org/1999/02/22-rdf-syntax-ns#"
   xmlns:svg="http://www.w3.org/2000/svg"
   xmlns="http://www.w3.org/2000/svg"
   xmlns:sodipodi="http://sodipodi.sourceforge.net/DTD/sodipodi-0.dtd"
   xmlns:inkscape="http://www.inkscape.org/namespaces/inkscape"
   width="150mm"
   height="150mm"
   viewBox="0 0 150 150"
   version="1.1"
   id="svg8"
   inkscape:version="0.92.4 5da689c313, 2019-01-14"
   sodipodi:docname="ibm-security.svg">
  <defs
     id="defs2" />
  <sodipodi:namedview
     id="base"
     pagecolor="#ffffff"
     bordercolor="#666666"
     borderopacity="1.0"
     inkscape:pageopacity="0.0"
     inkscape:pageshadow="2"
     inkscape:zoom="0.7"
     inkscape:cx="254.36683"
     inkscape:cy="467.57957"
     inkscape:document-units="mm"
     inkscape:current-layer="layer1"
     showgrid="false"
     inkscape:window-width="1920"
     inkscape:window-height="1016"
     inkscape:window-x="0"
     inkscape:window-y="27"
     inkscape:window-maximized="1" />
  <metadata
     id="metadata5">
    <rdf:RDF>
      <cc:Work
         rdf:about="">
        <dc:format>image/svg+xml</dc:format>
        <dc:type
           rdf:resource="http://purl.org/dc/dcmitype/StillImage" />
        <dc:title></dc:title>
      </cc:Work>
    </rdf:RDF>
  </metadata>
  <g
     inkscape:label="Layer 1"
     inkscape:groupmode="layer"
     id="layer1"
     transform="translate(0,-147)">
    <path
       style="fill:#1d3649;fill-opacity:1;stroke-width:0.30168402"
       d="m 70.276886,290.14294 c -11.152815,-5.08762 -22.390052,-12.59598 -30.639881,-20.47256 -8.947103,-8.54231 -14.20325,-17.25876 -16.473721,-27.31894 -0.650407,-2.88187 -0.662045,-3.37232 -0.771126,-32.49107 l -0.110749,-29.56503 25.883266,-14.90929 c 14.235795,-8.20011 25.980563,-14.95928 26.099488,-15.02038 0.118914,-0.0611 11.895901,6.63249 26.171087,14.87466 l 25.95486,14.98575 v 7.68685 7.68684 l -0.67879,-0.43951 c -0.7744,-0.5014 -49.494263,-28.61735 -50.532071,-29.16176 l -0.678786,-0.35607 v 8.1084 8.10841 l 25.869407,14.93073 25.8694,14.93072 0.0806,7.59242 c 0.0444,4.17582 0.003,7.59241 -0.0898,7.59241 -0.0937,0 -11.69411,-6.65214 -25.77863,-14.78252 -14.084511,-8.13039 -25.685333,-14.78252 -25.779584,-14.78252 -0.0943,0 -0.168594,3.63152 -0.165207,8.07005 l 0.0057,8.07005 25.355766,14.61817 c 13.945655,8.04001 25.424125,14.7288 25.507685,14.86399 0.4204,0.68022 -4.02765,12.30107 -4.70841,12.30107 -0.17704,0 -42.499019,-24.34826 -45.191781,-25.99929 l -0.985369,-0.60416 0.08027,8.22378 0.08027,8.22377 18.402721,10.64343 c 10.121499,5.85388 18.538489,10.70256 18.704419,10.77484 0.41365,0.18019 -3.61449,4.26846 -7.05212,7.15738 -2.5106,2.10986 -2.90056,2.33884 -3.46936,2.03716 -0.35245,-0.18692 -6.20691,-3.55495 -13.00988,-7.4845 -6.80298,-3.92954 -12.674502,-7.30671 -13.047833,-7.50481 l -0.678787,-0.3602 v 8.12943 8.12943 l 6.948725,3.99397 c 3.82181,2.19667 6.904962,4.1253 6.85144,4.28584 -0.245479,0.73644 -12.862993,6.88376 -14.032474,6.83669 -0.287051,-0.0115 -2.083119,-0.73319 -3.99127,-1.60363 z"
       id="path826"
       inkscape:connector-curvature="0" />
  </g>
</svg>
