<?xml version="1.0" encoding="UTF-8" standalone="no"?>
<svg
  
   id="svg1074"
   version="1.1"
   viewBox="0 0 100 100"
   height="100mm"
   width="100mm">
  <defs
     id="defs1068" />

  <g
     transform="translate(0,-197)"
     id="layer1">
    <path
       id="path1109"
       d="m 92.885779,288.95697 c -1.64636,-0.53742 -2.939398,-1.6832 -3.667517,-3.24862 -0.34509,-0.74189 -0.414211,-1.11705 -0.413027,-2.2392 0.0019,-1.79862 0.515438,-2.97297 1.833658,-4.19346 1.178748,-1.09171 2.259645,-1.5142 3.866427,-1.5142 2.282531,0 4.149253,1.18635 5.189228,3.29931 0.461532,0.93792 0.517812,1.1948 0.506652,2.3264 -0.0321,3.2192 -2.289721,5.60525 -5.428513,5.73724 -0.743413,0.0338 -1.479221,-0.0338 -1.886823,-0.16899 z m 3.79947,-0.85005 c 1.053018,-0.46136 2.045783,-1.45336 2.550789,-2.5483 0.270061,-0.58472 0.341715,-1.04102 0.341212,-2.16855 -6.58e-4,-1.23705 -0.05753,-1.53448 -0.421142,-2.22619 -0.513582,-0.97679 -1.646018,-2.0479 -2.640866,-2.4986 -1.119601,-0.50699 -2.989796,-0.47657 -4.150578,0.0676 -1.048115,0.49178 -1.943911,1.36211 -2.512448,2.4354 -0.368411,0.69626 -0.419448,0.9768 -0.419786,2.2992 -3.03e-4,1.26746 0.05746,1.6156 0.362834,2.18748 1.401484,2.62772 4.206836,3.62548 6.889917,2.4501 z m -4.161966,-4.6376 v -3.01269 h 1.652782 c 1.536347,0 1.686414,0.0338 2.128974,0.40053 0.964131,0.81117 0.732096,2.23243 -0.446657,2.73486 l -0.64235,0.27377 0.876418,1.30803 c 0.855116,1.27591 0.866602,1.30802 0.473692,1.30802 -0.3314,0 -0.5565,-0.23828 -1.272372,-1.34689 -0.81811,-1.26916 -0.90227,-1.34689 -1.423454,-1.34689 h -0.554137 v 1.34689 c 0,1.33169 -0.0044,1.34689 -0.396466,1.34689 H 92.52325 Z m 3.136041,-0.56444 c 0.262115,-0.18421 0.352362,-0.40559 0.352362,-0.86695 0,-0.78752 -0.279859,-0.94807 -1.654475,-0.94807 h -1.041016 v 1.03088 1.03087 h 0.995387 c 0.644382,0 1.119598,-0.0845 1.347742,-0.24673 z m -91.4171519,5.4072 C 3.3485211,288.03154 2.1097633,287.22375 1.487334,286.51514 1.2103496,286.20081 0.76251006,285.47412 0.49194741,284.90291 L 0,283.86528 V 246.19759 208.5299 l 0.59824592,-1.21002 C 1.2789619,205.94257 2.1572343,205.0692 3.5486124,204.38593 l 0.8912851,-0.43769 H 42.337174 80.2345 l 0.891285,0.43769 c 1.391513,0.68276 2.269684,1.55646 2.950349,2.93395 l 0.598247,1.21002 v 37.67581 37.67597 l -0.598247,1.21001 c -0.680715,1.37732 -1.558988,2.25068 -2.950349,2.93395 l -0.891285,0.43769 -37.659465,0.0338 c -30.967104,0.0338 -37.7790966,-0.008 -38.3327614,-0.18252 z M 25.132667,255.87836 v -20.29659 h -6.342624 -6.342641 v 20.29659 20.29642 h 6.342641 6.342624 z m 20.497174,8.52281 c 0.06591,-13.0879 0.0507,-12.90302 1.146638,-15.12836 0.716205,-1.45506 1.883444,-2.55337 3.276682,-3.08198 0.867118,-0.32954 1.277948,-0.38025 2.990857,-0.38025 1.930121,0 2.015717,0.0143 3.059235,0.52897 1.762138,0.86863 2.719415,2.38791 3.211549,5.10046 0.168996,0.93117 0.216822,3.74056 0.221385,12.96267 l 0.0058,11.77362 h 6.35207 6.352071 l -0.06251,-13.91411 c -0.06254,-13.44972 -0.07435,-13.97429 -0.40576,-15.7136 -0.750173,-3.9447 -1.811349,-6.23781 -3.831089,-8.2776 -2.23406,-2.25626 -4.78328,-3.29609 -8.953274,-3.65233 -4.288156,-0.36672 -7.363175,0.39882 -10.31251,2.5613 -1.017356,0.74527 -2.456662,2.26337 -3.080172,3.24659 l -0.487554,0.76893 v -2.80602 -2.806 H 39.00848 32.903684 v 20.29642 20.29659 h 6.334259 6.334275 z M 20.995543,229.73162 c 5.226929,-1.62742 6.835603,-8.25714 2.946869,-12.14591 -1.464182,-1.46519 -3.08117,-2.13391 -5.152369,-2.13391 -4.134656,0 -7.294054,3.14958 -7.294054,7.27156 0,3.26483 1.986159,6.02573 5.036369,7.00084 1.23553,0.39545 3.207578,0.39883 4.463185,0.008 z"
       style="stroke-width:1" />
  </g>
</svg>
